<svg width="216" height="44" viewBox="0 0 216 44" fill="none" xmlns="http://www.w3.org/2000/svg">
<path d="M50.7305 8.57275V25.4751C50.7305 28.6951 49.8643 31.1299 48.1358 32.7814C46.4111 34.4347 43.8802 35.2595 40.5469 35.2595C37.2173 35.2595 34.6864 34.4347 32.9579 32.7814C31.2275 31.1299 30.3633 28.6951 30.3633 25.4751V8.57275H36.31V23.7276C36.31 25.8479 36.6418 27.3205 37.3073 28.149C37.971 28.9738 39.0508 29.3843 40.5469 29.3843C42.0467 29.3843 43.1265 28.9738 43.7864 28.149C44.4501 27.3205 44.7838 25.8479 44.7838 23.7276V8.57275H50.7305Z" fill="white"/>
<path d="M54.1719 34.7865V18.4867H59.7736V20.2041H59.8336C61.2884 18.7428 62.8369 18.0122 64.4829 18.0122C65.2816 18.0122 66.0765 18.1177 66.8676 18.3286C67.6625 18.5395 68.4218 18.869 69.1473 19.3153C69.8766 19.7578 70.4671 20.3886 70.9171 21.2059C71.3707 22.0194 71.5995 22.9665 71.5995 24.0455V34.7865H66.0052V25.5746C66.0052 24.7272 65.7353 23.9853 65.1953 23.3526C64.6554 22.7161 63.9543 22.396 63.0956 22.396C62.2501 22.396 61.4852 22.7255 60.801 23.3827C60.1148 24.0361 59.7736 24.7667 59.7736 25.5746V34.7865H54.1719Z" fill="white"/>
<path d="M75.6542 9.40176C76.3085 8.74457 77.0884 8.41504 77.9939 8.41504C78.8975 8.41504 79.6774 8.74457 80.3336 9.40176C80.9879 10.0608 81.316 10.8442 81.316 11.7518C81.316 12.6613 80.9879 13.4447 80.3336 14.1019C79.6774 14.7609 78.8975 15.0886 77.9939 15.0886C77.0884 15.0886 76.3085 14.7609 75.6542 14.1019C74.9981 13.4447 74.6719 12.6613 74.6719 11.7518C74.6719 10.8442 74.9981 10.0608 75.6542 9.40176ZM75.1143 18.4856V34.7854H80.716V18.4856H75.1143Z" fill="white"/>
<path d="M103.162 18.4865L95.446 26.2748L103.92 34.7862H96.7058L90.2267 28.2708V34.7862H84.625V7.4668H90.2267V24.1733L95.8884 18.4865H103.162Z" fill="white"/>
<path d="M106.625 32.8488C104.826 31.2369 103.926 29.1711 103.926 26.6497C103.926 24.1302 104.863 22.0607 106.738 20.4432C108.616 18.8219 110.937 18.0103 113.697 18.0103C116.415 18.0103 118.708 18.8275 120.573 20.4582C122.443 22.0852 123.378 24.149 123.378 26.6497C123.378 29.1504 122.465 31.2124 120.641 32.8337C118.815 34.4512 116.502 35.2591 113.697 35.2591C110.787 35.2591 108.429 34.4569 106.625 32.8488ZM110.96 23.8929C110.234 24.6123 109.872 25.5331 109.872 26.6573C109.872 27.7777 110.219 28.691 110.915 29.399C111.608 30.107 112.527 30.461 113.667 30.461C114.762 30.461 115.662 30.1033 116.367 29.3839C117.075 28.6665 117.431 27.7551 117.431 26.6497C117.431 25.5312 117.066 24.6123 116.337 23.8929C115.611 23.1698 114.721 22.8083 113.667 22.8083C112.591 22.8083 111.689 23.1698 110.96 23.8929Z" fill="white"/>
<path d="M125.965 34.7845V18.4848H131.567V20.2021H131.627C133.081 18.7409 134.63 18.0103 136.276 18.0103C137.075 18.0103 137.869 18.1157 138.661 18.3266C139.455 18.5375 140.215 18.867 140.94 19.3133C141.67 19.7558 142.26 20.3867 142.71 21.2039C143.164 22.0174 143.392 22.9646 143.392 24.0436V34.7845H137.798V25.5726C137.798 24.7252 137.528 23.9833 136.988 23.3506C136.448 22.7141 135.747 22.394 134.889 22.394C134.043 22.394 133.278 22.7236 132.594 23.3807C131.908 24.0342 131.567 24.7648 131.567 25.5726V34.7845H125.965Z" fill="white"/>
<path d="M150.494 27.9863C151.502 27.9863 152.361 28.3441 153.066 29.0559C153.775 29.7639 154.131 30.6264 154.131 31.6395C154.131 32.6394 153.775 33.4924 153.066 34.2004C152.361 34.9085 151.502 35.2625 150.494 35.2625C149.504 35.2625 148.653 34.9085 147.944 34.2004C147.239 33.4924 146.887 32.6394 146.887 31.6395C146.887 30.6264 147.239 29.7639 147.944 29.0559C148.653 28.3441 149.504 27.9863 150.494 27.9863Z" fill="#158E80"/>
<path d="M159.03 32.7659C157.515 31.105 156.758 29.0657 156.758 26.6497C156.758 24.2356 157.515 22.1906 159.03 20.5185C160.549 18.8463 162.481 18.0103 164.827 18.0103C166.975 18.0103 168.745 18.6882 170.136 20.044V18.4848H175.738V34.7845H170.203V32.9391H170.136C168.745 34.487 166.975 35.2591 164.827 35.2591C162.481 35.2591 160.549 34.4286 159.03 32.7659ZM163.792 23.8929C163.066 24.6123 162.704 25.5331 162.704 26.6573C162.704 27.7777 163.051 28.691 163.747 29.399C164.44 30.107 165.359 30.461 166.499 30.461C167.594 30.461 168.494 30.1033 169.199 29.3839C169.907 28.6665 170.263 27.7551 170.263 26.6497C170.263 25.5312 169.898 24.6123 169.169 23.8929C168.443 23.1698 167.553 22.8083 166.499 22.8083C165.423 22.8083 164.521 23.1698 163.792 23.8929Z" fill="#158E80"/>
<path d="M180.076 9.40176C180.73 8.74457 181.51 8.41504 182.416 8.41504C183.319 8.41504 184.099 8.74457 184.755 9.40176C185.41 10.0608 185.738 10.8442 185.738 11.7518C185.738 12.6613 185.41 13.4447 184.755 14.1019C184.099 14.7609 183.319 15.0886 182.416 15.0886C181.51 15.0886 180.73 14.7609 180.076 14.1019C179.42 13.4447 179.094 12.6613 179.094 11.7518C179.094 10.8442 179.42 10.0608 180.076 9.40176ZM179.536 18.4856V34.7854H185.138V18.4856H179.536Z" fill="#158E80"/>
</svg>
